HIERARCHY
ROOT Hips
{
	OFFSET -278.121490 93.318451 465.951996
	CHANNELS 6 Xposition Yposition Zposition Zrotation Yrotation Xrotation 
	JOINT LeftUpLeg
	{
		OFFSET 0.103457 1.857822 10.548516
		CHANNELS 3 Zrotation Yrotation Xrotation
		JOINT LeftLeg
		{
			OFFSET 43.500008 -0.000031 0.000015
			CHANNELS 3 Zrotation Yrotation Xrotation
			JOINT LeftFoot
			{
				OFFSET 42.372192 0.000027 -0.000009
				CHANNELS 3 Zrotation Yrotation Xrotation
				JOINT LeftToe
				{
					OFFSET 17.299999 0.000000 -0.000004
					CHANNELS 3 Zrotation Yrotation Xrotation
					End Site
					{
						OFFSET 0.000000 0.000000 0.000000
					}
				}
			}
		}
	}
	JOINT RightUpLeg
	{
		OFFSET 0.103460 1.857822 -10.548513
		CHANNELS 3 Zrotation Yrotation Xrotation
		JOINT RightLeg
		{
			OFFSET 43.500038 -0.000015 -0.000002
			CHANNELS 3 Zrotation Yrotation Xrotation
			JOINT RightFoot
			{
				OFFSET 42.372269 -0.000019 0.000014
				CHANNELS 3 Zrotation Yrotation Xrotation
				JOINT RightToe
				{
					OFFSET 17.300005 -0.000001 0.000011
					CHANNELS 3 Zrotation Yrotation Xrotation
					End Site
					{
						OFFSET 0.000000 0.000000 0.000000
					}
				}
			}
		}
	}
	JOINT Spine
	{
		OFFSET 6.901966 -2.603743 -0.000003
		CHANNELS 3 Zrotation Yrotation Xrotation
		JOINT Spine1
		{
			OFFSET 12.588103 0.000012 0.000008
			CHANNELS 3 Zrotation Yrotation Xrotation
			JOINT Spine2
			{
				OFFSET 12.343199 0.000004 0.000007
				CHANNELS 3 Zrotation Yrotation Xrotation
				JOINT Neck
				{
					OFFSET 25.832901 -0.000008 -0.000001
					CHANNELS 3 Zrotation Yrotation Xrotation
					JOINT Head
					{
						OFFSET 11.766611 0.000029 -0.000004
						CHANNELS 3 Zrotation Yrotation Xrotation
						End Site
						{
							OFFSET 0.000000 0.000000 0.000000
						}
					}
				}
				JOINT LeftShoulder
				{
					OFFSET 19.745907 -1.480370 6.000077
					CHANNELS 3 Zrotation Yrotation Xrotation
					JOINT LeftArm
					{
						OFFSET 11.284128 -0.000004 -0.000015
						CHANNELS 3 Zrotation Yrotation Xrotation
						JOINT LeftForeArm
						{
							OFFSET 33.000065 0.000010 0.000016
							CHANNELS 3 Zrotation Yrotation Xrotation
							JOINT LeftHand
							{
								OFFSET 25.200001 0.000010 0.000006
								CHANNELS 3 Zrotation Yrotation Xrotation
								End Site
								{
									OFFSET 0.000000 0.000000 0.000000
								}
							}
						}
					}
				}
				JOINT RightShoulder
				{
					OFFSET 19.746094 -1.480385 -6.000086
					CHANNELS 3 Zrotation Yrotation Xrotation
					JOINT RightArm
					{
						OFFSET 11.284142 -0.000011 -0.000013
						CHANNELS 3 Zrotation Yrotation Xrotation
						JOINT RightForeArm
						{
							OFFSET 33.000092 0.000004 0.000015
							CHANNELS 3 Zrotation Yrotation Xrotation
							JOINT RightHand
							{
								OFFSET 25.199759 0.000141 0.000412
								CHANNELS 3 Zrotation Yrotation Xrotation
								End Site
								{
									OFFSET 0.000000 0.000000 0.000000
								}
							}
						}
					}
				}
			}
		}
	}
}
MOTION
Frames: 7
Frame Time: 0.033333
368.223206 89.575699 -432.884186 82.690109 -13.205194 -92.237914 -171.474139 5.669398 176.557986 -18.743668 -3.202503 -2.646600 86.708056 1.904553 0.130993 21.454553 0.003094 0.000002 166.999942 10.259602 177.295168 -36.991765 -0.540216 -1.911026 82.547406 1.693205 1.606890 21.454558 -0.003110 -0.000019 9.037840 -2.249799 -0.097589 8.075919 -4.487300 -0.352129 7.756763 -4.489195 -0.324974 27.054924 4.280874 4.066437 -5.686322 -9.016009 6.300931 178.204020 -77.840066 0.338244 -24.014458 49.824953 15.309123 -55.412734 -22.240112 2.424913 -11.815130 -10.398064 25.732167 166.341484 72.430181 -12.656225 -5.703300 -50.282736 -31.044658 -54.984826 19.002930 -2.219047 12.627072 3.971069 4.923489 
368.753815 89.841591 -433.981995 84.556970 -13.029521 -92.273984 -172.393128 3.430801 176.078711 -21.853284 -3.029944 -2.378681 88.027861 1.635520 -0.342244 21.454551 0.003098 0.000002 168.406374 9.059910 -179.770688 -35.714021 -0.245434 -2.979470 81.632891 2.342965 1.142163 21.454558 -0.003113 -0.000018 9.241838 -1.667728 -0.041855 8.477396 -3.327917 -0.205776 8.158713 -3.328949 -0.185653 27.528217 4.005920 4.020924 -5.485499 -9.526864 6.376636 179.231704 -77.505899 -0.702410 -25.131772 50.125082 13.044345 -57.496280 -21.847885 2.474692 -11.674917 -14.643408 22.815769 164.695791 72.703088 -14.332177 -7.795705 -50.352254 -29.330362 -55.615423 18.879543 -2.233334 11.805414 4.236942 3.397238 
369.347992 90.001221 -434.657715 86.162536 -12.504367 -92.050412 -175.122212 0.737300 175.142306 -27.194868 -3.503047 -1.642710 88.427078 1.128890 -0.476666 21.454551 0.003091 0.000000 169.279613 7.748602 -176.371986 -34.374447 -0.591358 -4.117880 80.993558 3.033367 0.635606 21.454557 -0.003114 -0.000018 9.476720 -1.107393 -0.040310 8.943827 -2.208373 -0.166061 8.625473 -2.209192 -0.152707 27.701453 3.831961 3.988705 -5.609865 -9.882153 6.456770 177.383701 -77.960811 1.171435 -26.427501 51.320337 10.370911 -59.126099 -21.377353 2.503502 -10.986186 -17.659842 20.558816 163.015005 73.383696 -16.023808 -11.234610 -50.671787 -27.162400 -56.021847 18.933348 -2.251693 11.529307 5.579685 0.891797 
369.883514 90.053581 -435.072601 87.208941 -11.794076 -91.675106 -179.339785 -1.830198 172.710390 -34.521736 -3.092459 0.308151 87.360203 -0.414120 -1.623485 21.454551 0.003091 -0.000000 169.551141 6.716395 -174.246923 -33.448119 -0.816290 -4.750321 80.799765 3.415282 0.370318 21.454562 -0.003111 -0.000018 9.733421 -0.698809 -0.044457 9.455565 -1.391646 -0.145867 9.137360 -1.392369 -0.137443 27.555077 3.907256 3.856088 -5.959845 -10.059400 6.392859 172.940595 -78.757258 5.673451 -27.743846 52.573841 7.967904 -60.650830 -21.011269 2.536520 -10.399235 -19.002186 19.062257 161.547634 73.416385 -17.523810 -14.919836 -50.157412 -25.184470 -56.836989 19.169080 -2.297547 11.380143 6.975869 -3.258337 
370.383911 90.059288 -435.161499 87.309195 -10.589947 -90.995209 174.833896 -4.347596 170.366884 -42.838390 -2.550273 3.219592 83.361339 -2.995128 -3.865587 21.454555 0.003090 0.000001 168.547485 6.423401 -173.849119 -33.543401 -0.602601 -4.502848 80.887267 3.207875 0.252518 21.454557 -0.003118 -0.000017 9.940734 -0.525329 -0.111844 9.870240 -1.039233 -0.268101 9.552095 -1.040700 -0.261814 26.980417 4.198988 3.639484 -6.377949 -10.077350 6.199096 168.329698 -79.476190 10.335808 -29.285905 52.985534 6.564652 -61.933102 -20.469785 2.548636 -10.142585 -19.259848 18.502400 160.630968 73.058087 -18.478793 -18.849551 -49.223619 -23.000549 -57.827646 19.283099 -2.342009 10.319076 7.947277 -8.335986 
370.730804 89.940987 -435.132385 87.309516 -9.289941 -90.473990 168.651441 -7.313980 168.675237 -50.699757 -1.819095 6.926516 77.875139 -6.934697 -7.782573 21.454550 0.003098 -0.000003 167.055499 6.204709 -174.228413 -34.141735 -0.283741 -3.891338 81.311264 2.760429 0.203488 21.454557 -0.003100 -0.000017 10.164164 -0.395532 -0.117212 10.316622 -0.779055 -0.269204 9.998505 -0.780523 -0.264498 26.426494 4.665312 3.356628 -7.179568 -10.057886 5.951249 162.912511 -79.769110 15.822261 -30.947553 52.582648 5.992478 -62.658475 -20.183392 2.557104 -12.224100 -18.629640 18.857958 160.115589 72.705014 -19.023422 -22.971096 -48.051597 -21.046198 -58.349268 19.568284 -2.381096 8.795195 8.346335 -12.571039 
370.868286 89.757446 -435.012512 87.165638 -7.922365 -90.462188 163.082788 -10.268097 167.679641 -56.829961 -1.405248 10.291823 72.563902 -11.323163 -12.340320 21.454551 0.003094 -0.000002 165.132227 6.296208 -174.731252 -35.101975 0.028057 -3.578690 81.834457 2.508962 0.084362 21.454558 -0.003107 -0.000016 10.396659 -0.315087 -0.030045 10.780878 -0.626029 -0.089335 10.462748 -0.626418 -0.085535 25.925976 5.042006 3.085703 -8.120242 -9.963918 5.717736 157.796385 -79.677736 21.014752 -32.448682 51.914707 5.604586 -63.223871 -20.144554 2.576723 -17.926458 -17.301149 22.741023 159.711966 72.897632 -19.427110 -27.402092 -47.270513 -18.669388 -58.461030 19.781078 -2.399933 7.000269 8.154882 -15.647164 
